<svg width="390" height="224" viewBox="0 0 390 224" fill="none" xmlns="http://www.w3.org/2000/svg">
<path d="M324.675 200.486C317.136 192.88 305.319 192.15 296.261 186.563C287.718 181.294 282.093 171.992 273.553 166.72C264.462 161.107 252.78 160.803 242.88 164.709C232.98 168.616 224.806 176.394 219.046 185.546C212.511 195.927 208.174 208.833 197.642 214.811C179.399 225.167 153.413 208.584 136.912 221.668C126.269 230.106 126.149 247.669 133.637 259.138C141.126 270.609 154.056 277.01 166.883 281.137C198.698 291.37 232.973 290.7 265.93 285.552C279.119 283.493 292.436 280.649 304.137 274.066C324.494 262.611 345.329 221.321 324.675 200.486Z" fill="#FFC47C"/>
<path d="M94.767 213.53C102.024 204.784 112.545 197.34 113.819 185.947C114.979 175.562 107.747 166.213 100.092 159.283C92.4355 152.35 83.5684 146.015 79.5081 136.42C74.5556 124.714 78.1959 110.723 85.4393 100.339C92.6844 89.9547 103.053 82.3821 113.053 74.7537C123.053 67.1253 133.121 58.963 139.348 47.9115C145.661 36.7097 147.704 23.0665 155.771 13.1098C171.729 -6.58714 202.363 -2.96977 224.275 -15.3171C230.961 -19.0849 237.123 -24.9139 238.731 -32.5423C240.34 -40.1707 235.639 -49.3619 228.047 -50.1915C221.911 -50.8622 216.395 -46.2159 212.854 -41.0509C209.312 -35.8859 206.862 -29.8778 202.492 -25.4275C190.57 -13.2896 169.822 -17.2618 155.647 -7.99286C136.782 4.34436 136.526 34.8089 117.997 47.6716C101.308 59.257 75.563 52.2233 61.5012 67.0087C55.3279 73.5 51.5995 83.9584 42.8542 85.3895C34.8726 86.6938 27.6529 78.1835 28.0373 69.9317C28.4216 61.6815 34.4967 54.6445 41.6148 50.728C48.7313 46.8133 56.8585 45.3941 64.7606 43.6572C72.6626 41.9203 80.7492 39.68 87.0462 34.5014C96.6058 26.6399 100.52 13.2872 109.938 5.24828C121.524 -4.64075 140.11 -5.4112 148.089 -18.5087C153.18 -26.867 151.937 -38.1685 146.781 -46.4863C141.626 -54.804 133.167 -60.4759 124.286 -64.2943C96.191 -76.3747 62.6424 -71.2655 36.7893 -54.7618C10.9362 -38.2581 -7.61597 -11.4751 -18.4895 17.626C-29.3631 46.7288 -33.0559 78.1548 -33.8467 109.295C-34.59 138.543 -32.8003 168.141 -24.7272 196.213C-16.6525 224.284 -1.93536 250.879 20.0421 269.632C30.77 278.786 43.9413 286.191 57.9066 285.64C71.9295 285.088 85.4038 275.522 83.8833 260.613C82.1139 243.258 83.0858 227.604 94.767 213.53Z" fill="#FFC47C"/>
<path d="M255.739 -13.1973C246.071 -3.64338 232.423 0.0629272 220.027 5.41705C207.631 10.7712 194.931 19.6187 192.383 33.102C190.247 44.4069 196.596 56.5094 206.532 61.9666C216.469 67.4238 229.177 66.4909 238.887 60.6247C253.47 51.8178 261.611 33.3234 277.662 27.78C288.819 23.9266 301.044 27.4031 312.083 31.5978C323.121 35.7909 334.403 40.7935 346.15 39.9468C357.9 39.1 370.108 29.9247 369.673 17.9168C369.103 2.10622 349.043 -5.84216 344.754 -21.0443C342.399 -29.3898 345.278 -38.4181 343.819 -46.9733C341.99 -57.7035 333.432 -66.2332 323.717 -70.7474C314.002 -75.2633 303.156 -76.4226 292.527 -77.4434C284.774 -78.1888 276.503 -78.7904 269.642 -75.0351C256.26 -67.712 264.114 -58.4353 266.832 -48.7022C270.179 -36.7298 264.124 -21.4837 255.739 -13.1973Z" fill="#FFC47C"/>
<path d="M128.415 215.279C135.397 212.059 143.311 211.712 150.601 209.307C180.272 199.525 191.706 159.698 220.777 148.197C234.327 142.838 249.454 144.63 263.871 146.504C277.143 148.228 290.826 150.089 302.373 156.977C310.989 162.114 317.865 169.735 324.603 177.239C335.697 189.594 347.509 203.852 346.771 220.584C346.576 224.989 346.315 230.84 350.419 232.23C353.21 233.177 356.229 230.936 357.414 228.19C358.599 225.443 358.498 222.333 358.696 219.341C359.508 207.142 365.982 195.46 375.813 188.452C383.155 183.219 391.942 180.643 400.274 177.286C408.607 173.93 417.004 169.374 421.785 161.653C426.566 153.929 426.291 142.339 419.086 136.91C411.211 130.978 398.757 134.354 391.644 127.495C386.878 122.901 386.401 115.157 388.339 108.77C390.277 102.382 394.18 96.8406 397.264 90.9402C403.448 79.1074 406.374 65.5256 405.622 52.141C405.133 43.4134 402.14 33.5468 394.222 30.1838C386.714 26.9943 377.914 31.2722 372.532 37.4894C367.152 43.7065 364.088 51.6069 359.747 58.6193C347.692 78.0948 324.911 90.1348 302.348 88.9554C290.176 88.3186 277.28 84.2749 266.273 89.6092C260.81 92.2578 256.596 96.9181 252.076 101.016C247.556 105.113 242.194 108.882 236.147 109.042C230.098 109.203 223.645 104.257 224.18 98.1144C224.589 93.4102 228.69 89.9242 232.876 87.9007C237.063 85.8772 241.715 84.6978 245.379 81.8065C249.042 78.9153 251.397 73.4193 248.939 69.416C245.43 63.7043 236.416 66.4203 231.964 71.4008C227.511 76.3812 224.395 83.1965 218.231 85.6346C210.176 88.819 201.486 82.7905 195.774 76.1824C190.062 69.5744 184.814 61.5797 176.522 59.1012C164.436 55.4888 152.04 66.0429 147.815 78.1369C143.589 90.2309 144.94 103.482 144.432 116.311C143.034 151.644 127.169 184.884 107.24 213.831C104.26 218.158 101.095 222.633 100.287 227.855C98.9057 236.791 109.981 247.005 115.635 236.478C117.213 233.539 116.654 229.672 117.758 226.529C119.527 221.487 123.687 217.459 128.415 215.279Z" fill="#FFC47C"/>
</svg>
