<svg width="779" height="251" viewBox="0 0 779 251" fill="none" xmlns="http://www.w3.org/2000/svg">
<path fill-rule="evenodd" clip-rule="evenodd" d="M-3.57515e-05 250.644L-2.47955e-05 5.99396e-05L25.0643 6.10352e-05L25.0643 250.644L-3.57515e-05 250.644Z" fill="black"/>
<path fill-rule="evenodd" clip-rule="evenodd" d="M86.5304 148.114C82.0022 146.871 75.6755 146.785 64.4473 146.785C63.8158 146.785 63.1808 146.786 62.5427 146.786C53.2885 146.798 43.4108 146.811 35.0138 144.355C24.5328 141.289 16.5986 134.634 11.304 123.212C6.4745 112.793 3.81842 98.3885 2.22381 79.1802C0.606392 59.697 -6.31277e-06 33.9368 -5.38859e-06 -1.52435e-05L25 -1.61692e-05C25 33.8131 25.6107 58.7136 27.1381 77.1119C28.6883 95.7851 31.1046 106.483 33.9856 112.698C36.4017 117.91 38.8162 119.419 42.0324 120.36C46.7538 121.741 53.1319 121.785 64.4473 121.785C64.91 121.785 65.3736 121.785 65.8379 121.784C75.2848 121.779 85.0187 121.773 93.1516 124.007C103.148 126.752 110.84 132.775 115.85 143.355C120.325 152.807 122.542 165.66 123.813 182.237C125.107 199.115 125.5 221.362 125.5 250.5L100.5 250.5C100.5 221.388 100.1 199.983 98.886 184.149C97.6488 168.014 95.6413 159.094 93.255 154.054C91.403 150.143 89.5954 148.956 86.5304 148.114Z" fill="black"/>
<path fill-rule="evenodd" clip-rule="evenodd" d="M100.257 250.644L100.257 5.99396e-05L125.322 6.10352e-05L125.322 250.644L100.257 250.644Z" fill="black"/>
<path fill-rule="evenodd" clip-rule="evenodd" d="M542.392 100.759L542.392 0.501342L567.457 0.501343L567.457 100.759L542.392 100.759Z" fill="black"/>
<path fill-rule="evenodd" clip-rule="evenodd" d="M542.392 250.643L542.392 150.386L567.457 150.386L567.457 250.643L542.392 250.643Z" fill="black"/>
<path d="M567.457 125.823C567.457 132.745 561.846 138.355 554.925 138.355C548.003 138.355 542.392 132.745 542.392 125.823C542.392 118.902 548.003 113.291 554.925 113.291C561.846 113.291 567.457 118.902 567.457 125.823Z" fill="black"/>
<path fill-rule="evenodd" clip-rule="evenodd" d="M617.537 212.431C623.546 221.275 630.737 225.581 637.864 225.579C644.924 225.577 680.21 225.577 713.727 225.577C730.486 225.578 746.805 225.578 758.933 225.578L778.999 225.579C779 225.579 779 225.579 779 238.111C778.999 250.643 778.999 250.643 778.998 250.643L758.932 250.643C746.804 250.642 730.486 250.642 713.726 250.642C680.206 250.641 644.926 250.641 637.872 250.643C619.593 250.65 605.614 239.482 596.805 226.518C587.979 213.529 582.997 197.003 582.997 181.837C582.997 166.598 587.328 153.308 596.192 141.823C600.819 135.827 606.523 130.526 613.13 125.747C606.65 121.281 600.97 116.325 596.34 110.558C587.205 99.1783 582.997 85.7233 582.997 69.3081C582.997 53.3731 586.955 36.7231 595.696 23.6525C604.687 10.2098 618.912 0.50128 637.868 0.501279L778.999 0.501273C778.999 0.501273 779 0.501273 779 13.0334C779 25.5656 778.999 25.5656 778.999 25.5656L637.868 25.5656C628.598 25.5656 621.654 29.9258 616.531 37.5861C611.159 45.6185 608.061 57.1057 608.061 69.3081C608.061 81.0302 610.909 88.6678 615.886 94.8674C620.878 101.086 628.74 106.78 640.86 113.044L778.992 113.044C778.993 113.044 778.993 113.044 778.993 125.576C778.993 138.108 778.993 138.108 778.992 138.108L640.872 138.108C629.106 144.256 621.135 150.526 616.034 157.136C610.787 163.935 608.061 171.749 608.061 181.837C608.061 191.998 611.545 203.613 617.537 212.431Z" fill="black"/>
<path fill-rule="evenodd" clip-rule="evenodd" d="M431.608 190.865C431.608 190.867 431.608 190.869 431.608 190.87C431.609 193.862 431.609 208.807 431.609 223.001L431.608 250.643C431.608 250.644 431.608 250.644 419.076 250.643C406.544 250.643 406.544 250.643 406.544 250.642L406.544 223C406.545 208.803 406.545 193.864 406.544 190.879C406.54 179.927 413.239 172.051 419.915 167.511C426.615 162.955 435.026 160.412 442.889 160.412C450.826 160.412 458.03 162.71 464.242 167.508C465.025 168.113 465.78 168.747 466.508 169.41C467.154 168.802 467.825 168.217 468.523 167.656C474.832 162.588 482.205 160.412 490.507 160.412C498.329 160.412 506.865 162.337 513.849 167.012C521.206 171.936 526.853 180.059 526.853 190.875V250.643C526.853 250.643 526.853 250.643 514.32 250.643C501.788 250.643 501.788 250.643 501.788 250.643V190.875C501.788 190.055 501.608 189.619 501.438 189.326C501.236 188.978 500.808 188.444 499.908 187.841C497.963 186.539 494.592 185.476 490.507 185.476C486.903 185.476 485.35 186.289 484.22 187.196C482.904 188.254 481.301 190.177 479.229 193.944V250.64C479.229 250.64 479.229 250.641 466.697 250.641C454.164 250.641 454.164 250.64 454.164 250.64V193.982C452.182 190.494 450.408 188.493 448.921 187.345C447.396 186.166 445.67 185.476 442.889 185.476C440.035 185.476 436.538 186.518 434.009 188.237C432.813 189.051 432.158 189.796 431.851 190.277C431.603 190.665 431.607 190.823 431.608 190.865Z" fill="black"/>
<path fill-rule="evenodd" clip-rule="evenodd" d="M501.788 121.437C501.788 121.435 501.788 121.433 501.788 121.431C501.787 118.44 501.787 88.0795 501.788 58.4722L501.788 0.00112696C501.788 0.000257208 501.788 -0.000185297 514.32 2.9422e-05C526.853 0.000244141 526.853 0.000686646 526.853 0.0015564L526.852 58.4724C526.852 88.0844 526.852 118.437 526.853 121.423C526.856 132.375 520.157 140.251 513.481 144.791C506.782 149.346 498.371 151.89 490.507 151.89C482.571 151.89 475.366 149.592 469.154 144.794C468.371 144.189 467.617 143.554 466.888 142.892C466.243 143.499 465.572 144.085 464.874 144.645C458.564 149.714 451.191 151.89 442.889 151.89C435.068 151.89 426.532 149.965 419.547 145.29C412.19 140.366 406.544 132.243 406.544 121.427L406.544 0.00128648C406.544 0.000447246 406.544 3.52586e-05 419.076 3.63542e-05C431.608 3.74498e-05 431.608 0.000449437 431.608 0.00128867L431.608 121.427C431.608 122.247 431.788 122.683 431.958 122.976C432.16 123.324 432.588 123.858 433.488 124.46C435.434 125.763 438.804 126.826 442.889 126.826C446.494 126.826 448.046 126.013 449.176 125.106C450.492 124.048 452.095 122.125 454.167 118.358L454.167 0.00113805C454.167 0.000405633 454.167 2.41632e-05 466.7 2.52588e-05C479.232 2.63544e-05 479.232 0.000392565 479.232 0.00114025L479.232 118.319C481.215 121.807 482.988 123.808 484.475 124.957C486.001 126.135 487.726 126.826 490.507 126.826C493.361 126.826 496.858 125.784 499.387 124.064C500.583 123.251 501.238 122.505 501.545 122.025C501.793 121.637 501.789 121.478 501.788 121.437Z" fill="black"/>
<circle cx="265.933" cy="125.573" r="112.539" stroke="black" stroke-width="25.0643"/>
<mask id="mask0_1_4" style="mask-type:alpha" maskUnits="userSpaceOnUse" x="140" y="0" width="252" height="251">
<circle cx="265.933" cy="125.071" r="112.539" fill="#D9D9D9" stroke="black" stroke-width="25.0643"/>
</mask>
<g mask="url(#mask0_1_4)">
<path fill-rule="evenodd" clip-rule="evenodd" d="M210.54 74.1906C217.462 74.1906 223.073 68.5798 223.073 61.6585C223.073 54.7371 217.462 49.1263 210.54 49.1263C203.619 49.1263 198.008 54.7371 198.008 61.6585C198.008 68.5798 203.619 74.1906 210.54 74.1906ZM210.54 86.7228C224.383 86.7228 235.605 75.5011 235.605 61.6585C235.605 47.8158 224.383 36.5941 210.54 36.5941C196.698 36.5941 185.476 47.8158 185.476 61.6585C185.476 75.5011 196.698 86.7228 210.54 86.7228Z" fill="black"/>
<path fill-rule="evenodd" clip-rule="evenodd" d="M266.685 107.275C273.606 107.275 279.217 101.665 279.217 94.7432C279.217 87.8219 273.606 82.2111 266.685 82.2111C259.763 82.2111 254.152 87.8219 254.152 94.7432C254.152 101.665 259.763 107.275 266.685 107.275ZM266.685 119.808C280.527 119.808 291.749 108.586 291.749 94.7432C291.749 80.9006 280.527 69.6789 266.685 69.6789C252.842 69.6789 241.62 80.9006 241.62 94.7432C241.62 108.586 252.842 119.808 266.685 119.808Z" fill="black"/>
<path fill-rule="evenodd" clip-rule="evenodd" d="M330.849 82.2111C337.771 82.2111 343.382 76.6002 343.382 69.6789C343.382 62.7576 337.771 57.1467 330.849 57.1467C323.928 57.1467 318.317 62.7576 318.317 69.6789C318.317 76.6002 323.928 82.2111 330.849 82.2111ZM330.849 94.7433C344.692 94.7433 355.914 83.5216 355.914 69.6789C355.914 55.8363 344.692 44.6146 330.849 44.6146C317.007 44.6146 305.785 55.8363 305.785 69.6789C305.785 83.5216 317.007 94.7433 330.849 94.7433Z" fill="black"/>
<path fill-rule="evenodd" clip-rule="evenodd" d="M255.155 149.296C255.156 153.527 255.156 162.606 255.156 171.305L255.155 191.993C255.155 191.993 255.155 191.994 242.623 191.993C230.091 191.992 230.091 191.992 230.091 191.992L230.091 171.305C230.092 160.679 230.092 149.501 230.091 147.268C230.086 135.861 239.077 129.29 244.825 126.364C251.341 123.049 259.266 121.311 266.437 121.311C273.706 121.311 281.163 123.065 287.46 126.458C293.629 129.783 299.987 135.455 302.325 143.925L302.777 145.562V191.99C302.777 191.991 302.777 191.991 290.245 191.991C277.713 191.991 277.713 191.991 277.713 191.99V150.048C277.339 149.663 276.685 149.124 275.57 148.523C273.206 147.249 269.885 146.376 266.437 146.376C262.89 146.376 258.906 147.322 256.193 148.703C255.778 148.914 255.434 149.115 255.155 149.296Z" fill="black"/>
<path fill-rule="evenodd" clip-rule="evenodd" d="M323.642 127.23C321.204 129.037 320.823 130.549 320.824 131.333C320.825 134.594 320.825 150.889 320.824 166.365L320.824 196.504C320.824 196.505 320.824 196.505 308.291 196.504C295.759 196.504 295.759 196.504 295.759 196.503L295.76 166.364C295.76 150.885 295.76 134.597 295.759 131.341C295.756 120.394 301.923 112.131 308.714 107.096C315.427 102.119 323.984 99.2548 332.105 99.2548C348.268 99.2548 364.747 110.64 368.227 129L368.446 130.157V196.501C368.446 196.501 368.446 196.501 355.914 196.501C343.381 196.501 343.381 196.501 343.381 196.501V132.742C341.971 127.798 337.074 124.319 332.105 124.319C329.509 124.319 326.157 125.365 323.642 127.23Z" fill="black"/>
<path fill-rule="evenodd" clip-rule="evenodd" d="M201.156 116.832C198.763 118.732 198.008 120.626 198.008 122.195C198.009 125.687 198.009 143.139 198.009 159.713L198.008 191.993C198.008 191.993 198.008 191.993 185.476 191.993C172.944 191.993 172.944 191.992 172.944 191.992L172.945 159.713C172.945 143.135 172.945 125.689 172.944 122.202C172.941 111.206 178.734 102.631 185.569 97.2033C192.275 91.8788 200.945 88.728 209.29 88.728C226.115 88.728 242.13 101.314 245.439 120.011L245.63 121.095V191.989C245.63 191.99 245.63 191.99 233.098 191.99C220.566 191.99 220.566 191.99 220.566 191.989V123.469C219.043 117.257 213.69 113.792 209.29 113.792C206.917 113.792 203.679 114.828 201.156 116.832Z" fill="black"/>
<path fill-rule="evenodd" clip-rule="evenodd" d="M369.863 202.913C369.885 202.915 369.748 203.052 369.382 203.317C369.658 203.043 369.84 202.91 369.863 202.913ZM341.397 213.047C321.806 208.79 295.46 206.029 265.933 206.029C236.405 206.029 210.059 208.79 190.468 213.047C210.059 217.304 236.405 220.065 265.933 220.065C295.46 220.065 321.806 217.304 341.397 213.047ZM162.002 202.913C162.025 202.91 162.207 203.043 162.483 203.317C162.117 203.052 161.98 202.915 162.002 202.913ZM162.002 223.181C161.98 223.179 162.117 223.042 162.483 222.777C162.207 223.052 162.025 223.184 162.002 223.181ZM369.382 222.777C369.748 223.042 369.885 223.179 369.863 223.181C369.84 223.184 369.658 223.052 369.382 222.777ZM265.933 245.129C335.007 245.129 391.004 230.766 391.004 213.047C391.004 195.328 335.007 180.965 265.933 180.965C196.858 180.965 140.861 195.328 140.861 213.047C140.861 230.766 196.858 245.129 265.933 245.129Z" fill="black"/>
</g>
</svg>
