<svg width="780" height="251" viewBox="0 0 780 251" fill="none" xmlns="http://www.w3.org/2000/svg">
<path fill-rule="evenodd" clip-rule="evenodd" d="M0.999995 250.644L1.00001 5.99396e-05L26.0644 6.10352e-05L26.0644 250.644L0.999995 250.644Z" fill="url(#paint0_linear_1_85)"/>
<path fill-rule="evenodd" clip-rule="evenodd" d="M101.257 250.644L101.257 5.99396e-05L126.322 6.10352e-05L126.322 250.644L101.257 250.644Z" fill="url(#paint1_linear_1_85)"/>
<path fill-rule="evenodd" clip-rule="evenodd" d="M87.2187 148.346C82.6905 147.102 76.3637 147.017 65.1356 147.017C64.5041 147.017 63.869 147.017 63.231 147.018C53.9768 147.03 44.0991 147.043 35.7021 144.587C25.221 141.521 17.2868 134.865 11.9923 123.444C7.16278 113.025 4.50669 98.6202 2.91209 79.4119C1.29467 59.9287 0.688272 34.1685 0.688273 0.231674L25.6883 0.231673C25.6883 34.0448 26.299 58.9452 27.8264 77.3436C29.3766 96.0168 31.7929 106.714 34.6739 112.93C37.09 118.142 39.5045 119.651 42.7207 120.592C47.4421 121.973 53.8202 122.017 65.1355 122.017C65.5982 122.017 66.0618 122.016 66.5261 122.016C75.9731 122.011 85.707 122.005 93.8399 124.239C103.836 126.984 111.528 133.007 116.538 143.587C121.014 153.039 123.23 165.892 124.501 182.469C125.795 199.347 126.188 221.594 126.188 250.732L101.188 250.732C101.188 221.619 100.788 200.215 99.5743 184.38C98.3371 168.245 96.3296 159.326 93.9433 154.286C92.0913 150.375 90.2837 149.188 87.2187 148.346Z" fill="url(#paint2_linear_1_85)"/>
<path fill-rule="evenodd" clip-rule="evenodd" d="M543.392 100.759L543.392 0.501311L568.457 0.501312L568.457 100.759L543.392 100.759Z" fill="url(#paint3_linear_1_85)"/>
<path fill-rule="evenodd" clip-rule="evenodd" d="M543.392 250.643L543.392 150.386L568.457 150.386L568.457 250.643L543.392 250.643Z" fill="url(#paint4_linear_1_85)"/>
<path d="M568.457 125.823C568.457 132.744 562.846 138.355 555.925 138.355C549.003 138.355 543.392 132.744 543.392 125.823C543.392 118.902 549.003 113.291 555.925 113.291C562.846 113.291 568.457 118.902 568.457 125.823Z" fill="url(#paint5_linear_1_85)"/>
<path fill-rule="evenodd" clip-rule="evenodd" d="M618.537 212.431C624.546 221.275 631.737 225.581 638.864 225.579C645.924 225.577 681.21 225.577 714.727 225.577C731.486 225.578 747.805 225.578 759.933 225.578L779.999 225.579C780 225.579 780 225.579 780 238.111C779.999 250.643 779.999 250.643 779.998 250.643L759.932 250.643C747.804 250.642 731.486 250.642 714.726 250.642C681.206 250.641 645.926 250.641 638.872 250.643C620.593 250.65 606.614 239.482 597.805 226.518C588.979 213.529 583.997 197.003 583.997 181.837C583.997 166.598 588.328 153.308 597.192 141.823C601.819 135.827 607.523 130.526 614.13 125.747C607.65 121.281 601.97 116.325 597.34 110.558C588.205 99.1783 583.997 85.7233 583.997 69.3081C583.997 53.3731 587.955 36.7231 596.696 23.6525C605.687 10.2098 619.912 0.50128 638.868 0.501279L779.999 0.501273C779.999 0.501273 780 0.501273 780 13.0334C780 25.5656 779.999 25.5656 779.999 25.5656L638.868 25.5656C629.598 25.5656 622.654 29.9258 617.531 37.5861C612.159 45.6185 609.061 57.1057 609.061 69.3081C609.061 81.0302 611.909 88.6678 616.886 94.8674C621.878 101.086 629.74 106.78 641.86 113.044L779.992 113.044C779.993 113.044 779.993 113.044 779.993 125.576C779.993 138.108 779.993 138.108 779.992 138.108L641.872 138.108C630.106 144.256 622.135 150.526 617.034 157.136C611.787 163.935 609.061 171.749 609.061 181.837C609.061 191.998 612.545 203.613 618.537 212.431Z" fill="url(#paint6_linear_1_85)"/>
<path fill-rule="evenodd" clip-rule="evenodd" d="M432.608 190.865C432.608 190.867 432.608 190.869 432.608 190.87C432.609 193.862 432.609 208.807 432.609 223.001L432.608 250.643C432.608 250.644 432.608 250.644 420.076 250.643C407.544 250.643 407.544 250.643 407.544 250.642L407.544 223C407.545 208.803 407.545 193.864 407.544 190.879C407.54 179.927 414.239 172.051 420.915 167.511C427.615 162.955 436.026 160.412 443.889 160.412C451.826 160.412 459.03 162.71 465.242 167.508C466.025 168.113 466.78 168.747 467.508 169.41C468.154 168.802 468.825 168.217 469.523 167.656C475.832 162.588 483.205 160.412 491.507 160.412C499.329 160.412 507.865 162.337 514.849 167.012C522.206 171.936 527.853 180.059 527.853 190.875V250.643C527.853 250.643 527.853 250.643 515.32 250.643C502.788 250.643 502.788 250.643 502.788 250.643V190.875C502.788 190.055 502.608 189.619 502.438 189.326C502.236 188.978 501.808 188.444 500.908 187.841C498.963 186.539 495.592 185.476 491.507 185.476C487.903 185.476 486.35 186.289 485.22 187.196C483.904 188.254 482.301 190.177 480.229 193.944V250.64C480.229 250.64 480.229 250.64 467.697 250.64C455.164 250.64 455.164 250.64 455.164 250.64V193.982C453.182 190.494 451.408 188.493 449.921 187.345C448.396 186.166 446.67 185.476 443.889 185.476C441.035 185.476 437.538 186.518 435.009 188.237C433.813 189.051 433.158 189.796 432.851 190.277C432.603 190.665 432.607 190.823 432.608 190.865Z" fill="url(#paint7_linear_1_85)"/>
<path fill-rule="evenodd" clip-rule="evenodd" d="M502.788 121.437C502.788 121.435 502.788 121.433 502.788 121.431C502.787 118.44 502.787 88.0795 502.788 58.4722L502.788 0.00112696C502.788 0.000257208 502.788 -0.000185297 515.32 2.9422e-05C527.853 0.000244141 527.853 0.000686646 527.853 0.0015564L527.852 58.4724C527.852 88.0844 527.852 118.437 527.853 121.423C527.856 132.375 521.157 140.251 514.481 144.791C507.782 149.346 499.371 151.89 491.507 151.89C483.571 151.89 476.366 149.592 470.154 144.794C469.371 144.189 468.617 143.554 467.888 142.892C467.243 143.499 466.572 144.085 465.874 144.645C459.564 149.714 452.191 151.89 443.889 151.89C436.068 151.89 427.532 149.965 420.547 145.29C413.19 140.366 407.544 132.243 407.544 121.427L407.544 0.00128648C407.544 0.000447246 407.544 3.52586e-05 420.076 3.63542e-05C432.608 3.74498e-05 432.608 0.000449437 432.608 0.00128867L432.608 121.427C432.608 122.247 432.788 122.683 432.958 122.976C433.16 123.324 433.588 123.858 434.488 124.46C436.434 125.763 439.804 126.826 443.889 126.826C447.494 126.826 449.046 126.013 450.176 125.106C451.492 124.048 453.095 122.125 455.167 118.358L455.167 0.00113805C455.167 0.000405633 455.167 2.41632e-05 467.7 2.52588e-05C480.232 2.63544e-05 480.232 0.000392565 480.232 0.00114025L480.232 118.319C482.215 121.807 483.988 123.808 485.475 124.957C487.001 126.135 488.726 126.826 491.507 126.826C494.361 126.826 497.858 125.784 500.387 124.064C501.583 123.251 502.238 122.505 502.545 122.025C502.793 121.637 502.789 121.478 502.788 121.437Z" fill="url(#paint8_linear_1_85)"/>
<circle cx="266.933" cy="125.573" r="112.539" stroke="url(#paint9_linear_1_85)" stroke-width="25.0643"/>
<mask id="mask0_1_85" style="mask-type:alpha" maskUnits="userSpaceOnUse" x="141" y="0" width="252" height="251">
<circle cx="266.933" cy="125.071" r="112.539" fill="#D9D9D9" stroke="black" stroke-width="25.0643"/>
</mask>
<g mask="url(#mask0_1_85)">
<path fill-rule="evenodd" clip-rule="evenodd" d="M211.54 74.1906C218.462 74.1906 224.073 68.5798 224.073 61.6585C224.073 54.7371 218.462 49.1263 211.54 49.1263C204.619 49.1263 199.008 54.7371 199.008 61.6585C199.008 68.5798 204.619 74.1906 211.54 74.1906ZM211.54 86.7228C225.383 86.7228 236.605 75.5011 236.605 61.6585C236.605 47.8158 225.383 36.5941 211.54 36.5941C197.698 36.5941 186.476 47.8158 186.476 61.6585C186.476 75.5011 197.698 86.7228 211.54 86.7228Z" fill="url(#paint10_linear_1_85)"/>
<path fill-rule="evenodd" clip-rule="evenodd" d="M267.685 107.275C274.606 107.275 280.217 101.665 280.217 94.7432C280.217 87.8219 274.606 82.2111 267.685 82.2111C260.763 82.2111 255.152 87.8219 255.152 94.7432C255.152 101.665 260.763 107.275 267.685 107.275ZM267.685 119.808C281.527 119.808 292.749 108.586 292.749 94.7432C292.749 80.9006 281.527 69.6789 267.685 69.6789C253.842 69.6789 242.62 80.9006 242.62 94.7432C242.62 108.586 253.842 119.808 267.685 119.808Z" fill="url(#paint11_linear_1_85)"/>
<path fill-rule="evenodd" clip-rule="evenodd" d="M331.849 82.2111C338.771 82.2111 344.382 76.6002 344.382 69.6789C344.382 62.7576 338.771 57.1467 331.849 57.1467C324.928 57.1467 319.317 62.7576 319.317 69.6789C319.317 76.6002 324.928 82.2111 331.849 82.2111ZM331.849 94.7433C345.692 94.7433 356.914 83.5216 356.914 69.6789C356.914 55.8363 345.692 44.6146 331.849 44.6146C318.007 44.6146 306.785 55.8363 306.785 69.6789C306.785 83.5216 318.007 94.7433 331.849 94.7433Z" fill="url(#paint12_linear_1_85)"/>
<path fill-rule="evenodd" clip-rule="evenodd" d="M256.155 149.296C256.156 153.527 256.156 162.606 256.156 171.305L256.155 191.993C256.155 191.993 256.155 191.994 243.623 191.993C231.091 191.992 231.091 191.992 231.091 191.992L231.091 171.305C231.092 160.679 231.092 149.501 231.091 147.268C231.086 135.861 240.077 129.29 245.825 126.364C252.341 123.049 260.266 121.311 267.437 121.311C274.706 121.311 282.163 123.065 288.46 126.458C294.629 129.783 300.987 135.455 303.325 143.925L303.777 145.562V191.99C303.777 191.991 303.777 191.991 291.245 191.991C278.713 191.991 278.713 191.991 278.713 191.99V150.048C278.339 149.663 277.685 149.124 276.57 148.523C274.206 147.249 270.885 146.376 267.437 146.376C263.89 146.376 259.906 147.322 257.193 148.703C256.778 148.914 256.434 149.115 256.155 149.296Z" fill="url(#paint13_linear_1_85)"/>
<path fill-rule="evenodd" clip-rule="evenodd" d="M324.642 127.23C322.204 129.037 321.823 130.549 321.824 131.333C321.825 134.594 321.825 150.889 321.824 166.365L321.824 196.504C321.824 196.505 321.824 196.505 309.291 196.504C296.759 196.504 296.759 196.504 296.759 196.503L296.76 166.364C296.76 150.885 296.76 134.597 296.759 131.341C296.756 120.394 302.923 112.131 309.714 107.096C316.427 102.119 324.984 99.2548 333.105 99.2548C349.268 99.2548 365.747 110.64 369.227 129L369.446 130.157V196.501C369.446 196.501 369.446 196.501 356.914 196.501C344.381 196.501 344.381 196.501 344.381 196.501V132.742C342.971 127.798 338.074 124.319 333.105 124.319C330.509 124.319 327.157 125.365 324.642 127.23Z" fill="url(#paint14_linear_1_85)"/>
<path fill-rule="evenodd" clip-rule="evenodd" d="M202.156 116.832C199.763 118.732 199.008 120.626 199.008 122.195C199.009 125.687 199.009 143.139 199.009 159.713L199.008 191.993C199.008 191.993 199.008 191.993 186.476 191.993C173.944 191.993 173.944 191.992 173.944 191.992L173.945 159.713C173.945 143.135 173.945 125.689 173.944 122.202C173.941 111.206 179.734 102.631 186.569 97.2033C193.275 91.8788 201.945 88.728 210.29 88.728C227.115 88.728 243.13 101.314 246.439 120.011L246.63 121.095V191.989C246.63 191.99 246.63 191.99 234.098 191.99C221.566 191.99 221.566 191.99 221.566 191.989V123.469C220.043 117.257 214.69 113.792 210.29 113.792C207.917 113.792 204.679 114.828 202.156 116.832Z" fill="url(#paint15_linear_1_85)"/>
<path fill-rule="evenodd" clip-rule="evenodd" d="M370.863 202.913C370.886 202.915 370.748 203.052 370.382 203.317C370.658 203.043 370.841 202.91 370.863 202.913ZM342.397 213.047C322.806 208.79 296.46 206.029 266.933 206.029C237.405 206.029 211.059 208.79 191.468 213.047C211.059 217.304 237.405 220.065 266.933 220.065C296.46 220.065 322.806 217.304 342.397 213.047ZM163.002 202.913C163.025 202.91 163.207 203.043 163.483 203.317C163.117 203.052 162.98 202.915 163.002 202.913ZM163.002 223.181C162.98 223.179 163.117 223.042 163.483 222.777C163.207 223.052 163.025 223.184 163.002 223.181ZM370.382 222.777C370.748 223.042 370.886 223.179 370.863 223.181C370.841 223.184 370.658 223.052 370.382 222.777ZM266.933 245.129C336.007 245.129 392.004 230.766 392.004 213.047C392.004 195.328 336.007 180.965 266.933 180.965C197.858 180.965 141.862 195.328 141.862 213.047C141.862 230.766 197.858 245.129 266.933 245.129Z" fill="url(#paint16_linear_1_85)"/>
</g>
<defs>
<linearGradient id="paint0_linear_1_85" x1="13.5322" y1="6.04874e-05" x2="13.5322" y2="250.644" gradientUnits="userSpaceOnUse">
<stop stop-color="#D86351"/>
<stop offset="1" stop-color="#FBAE54"/>
</linearGradient>
<linearGradient id="paint1_linear_1_85" x1="113.79" y1="6.04874e-05" x2="113.79" y2="250.644" gradientUnits="userSpaceOnUse">
<stop stop-color="#D86351"/>
<stop offset="1" stop-color="#FBAE54"/>
</linearGradient>
<linearGradient id="paint2_linear_1_85" x1="9.73489" y1="-3.37255" x2="113.056" y2="255.964" gradientUnits="userSpaceOnUse">
<stop stop-color="#D86351"/>
<stop offset="1" stop-color="#FBAE54"/>
</linearGradient>
<linearGradient id="paint3_linear_1_85" x1="555.925" y1="0.501312" x2="555.925" y2="100.759" gradientUnits="userSpaceOnUse">
<stop stop-color="#D86351"/>
<stop offset="1" stop-color="#FBAE54"/>
</linearGradient>
<linearGradient id="paint4_linear_1_85" x1="555.925" y1="150.386" x2="555.925" y2="250.643" gradientUnits="userSpaceOnUse">
<stop stop-color="#D86351"/>
<stop offset="1" stop-color="#FBAE54"/>
</linearGradient>
<linearGradient id="paint5_linear_1_85" x1="543.392" y1="125.823" x2="568.457" y2="125.823" gradientUnits="userSpaceOnUse">
<stop stop-color="#D86351"/>
<stop offset="1" stop-color="#FBAE54"/>
</linearGradient>
<linearGradient id="paint6_linear_1_85" x1="681.998" y1="250.643" x2="681.998" y2="0.501262" gradientUnits="userSpaceOnUse">
<stop stop-color="#D86351"/>
<stop offset="1" stop-color="#FBAE54"/>
</linearGradient>
<linearGradient id="paint7_linear_1_85" x1="407.544" y1="205.528" x2="527.853" y2="205.528" gradientUnits="userSpaceOnUse">
<stop stop-color="#D86351"/>
<stop offset="1" stop-color="#FBAE54"/>
</linearGradient>
<linearGradient id="paint8_linear_1_85" x1="527.853" y1="75.945" x2="407.544" y2="75.945" gradientUnits="userSpaceOnUse">
<stop stop-color="#D86351"/>
<stop offset="1" stop-color="#FBAE54"/>
</linearGradient>
<linearGradient id="paint9_linear_1_85" x1="141.861" y1="125.573" x2="392.004" y2="125.573" gradientUnits="userSpaceOnUse">
<stop stop-color="#D86351"/>
<stop offset="1" stop-color="#FBAE54"/>
</linearGradient>
<linearGradient id="paint10_linear_1_85" x1="186.476" y1="61.6585" x2="236.605" y2="61.6585" gradientUnits="userSpaceOnUse">
<stop stop-color="#D86351"/>
<stop offset="1" stop-color="#FBAE54"/>
</linearGradient>
<linearGradient id="paint11_linear_1_85" x1="242.62" y1="94.7432" x2="292.749" y2="94.7432" gradientUnits="userSpaceOnUse">
<stop stop-color="#D86351"/>
<stop offset="1" stop-color="#FBAE54"/>
</linearGradient>
<linearGradient id="paint12_linear_1_85" x1="306.785" y1="69.6789" x2="356.914" y2="69.6789" gradientUnits="userSpaceOnUse">
<stop stop-color="#D86351"/>
<stop offset="1" stop-color="#FBAE54"/>
</linearGradient>
<linearGradient id="paint13_linear_1_85" x1="231.091" y1="156.652" x2="303.777" y2="156.652" gradientUnits="userSpaceOnUse">
<stop stop-color="#D86351"/>
<stop offset="1" stop-color="#FBAE54"/>
</linearGradient>
<linearGradient id="paint14_linear_1_85" x1="296.759" y1="147.88" x2="369.446" y2="147.88" gradientUnits="userSpaceOnUse">
<stop stop-color="#D86351"/>
<stop offset="1" stop-color="#FBAE54"/>
</linearGradient>
<linearGradient id="paint15_linear_1_85" x1="173.944" y1="140.361" x2="246.63" y2="140.361" gradientUnits="userSpaceOnUse">
<stop stop-color="#D86351"/>
<stop offset="1" stop-color="#FBAE54"/>
</linearGradient>
<linearGradient id="paint16_linear_1_85" x1="141.862" y1="213.047" x2="392.004" y2="213.047" gradientUnits="userSpaceOnUse">
<stop stop-color="#D86351"/>
<stop offset="1" stop-color="#FBAE54"/>
</linearGradient>
</defs>
</svg>
